<svg xmlns="http://www.w3.org/2000/svg" width="507.99631" height="486.46461" viewBox="0 0 507.99631 486.46461" xmlns:xlink="http://www.w3.org/1999/xlink"><g><path d="m339.28132,144.85552c-1.7577,2.08666-3.98893,3.72206-6.50814,4.76945l-7.21532,8.12517-20.43689,24.67773-13.80738,8.35194-6.41109-11.03715,30.26457-29.48015,8.43338-8.58048c.67621-2.64418,1.97584-5.08773,3.79079-7.1256,4.4675-5.16172,10.75245-7.03932,14.03602-4.19587,3.28421,2.84414,2.32391,9.33233-2.14593,14.49496Z" fill="#ffafaf"/><path d="m215.75649,169.37563l13.29016-22.11774,56.5433,24.29522,30.90638-25.25171s12.2617,10.56233,12.69962,10.93955-31.16616,44.15089-33.41028,44.09926c-2.24412-.05162-80.02919-31.96459-80.02919-31.96459Z" fill="#dedede"/></g><path d="m0,479.24451c0,.66003.53003,1.19,1.19006,1.19h505.61625c.65997,0,1.19-.52997,1.19-1.19,0-.65997-.53003-1.19-1.19-1.19H1.19006c-.66003,0-1.19006.53003-1.19006,1.19Z" fill="#3f3d58"/><g><path d="m343.37799,0c40.25244,0,73,30.72852,73,68.5,0,10.55371-2.62939,21.05078-7.61865,30.46875h.06006l-1.32129,2.29688c-11.2124,19.31543-17.43848,41.3125-18.00342,63.61133-.17139,6.79785-5.6333,12.12305-12.43359,12.12305h-56.88623c-7.33008,0-13.48633-5.25439-14.6377-12.49316-2.80176-17.6123-8.40527-34.58301-16.65332-50.44238-11.93457-12.55957-18.50586-28.73633-18.50586-45.56445C270.37799,30.72852,303.12604,0,343.37799,0Zm62.35107,100.3291l.47314-.85156c5.34863-9.49414,8.17578-20.20605,8.17578-30.97754,0-36.66797-31.85059-66.5-71-66.5s-71,29.83203-71,66.5c0,16.3584,6.41016,32.08594,18.05078,44.28711l.16309.22852c8.38379,16.08594,14.07715,33.30469,16.91992,51.17676.99609,6.26221,6.32227,10.80762,12.66309,10.80762h56.88623c5.70703,0,10.29004-4.46875,10.43457-10.17383.57227-22.60645,6.87695-44.90723,18.2334-64.49707Z" fill="#3f3d56"/><path d="m384.93105,172.00015h-75.10596c-2.38802,0-4.26057,2.0505-4.04437,4.42871l.70322,7.73563c.58849,6.4735,2.63111,12.73056,5.97549,18.3044h0c.55924.93206,1.61518,1.44245,2.69433,1.31238,22.25527-2.68252,44.03088-2.77033,65.28482-.03885,1.16266.14942,2.29074-.44478,2.81498-1.49325l.48135-.9627c2.40753-4.81506,3.8933-10.03792,4.38068-15.39922l.85983-9.45839c.2162-2.37821-1.65635-4.42871-4.04437-4.42871Z" fill="#3f3d56"/><path d="m317.37807,198.50015h61.5v40.02791c0,7.15949-5.8126,12.97209-12.97209,12.97209h-35.55581c-7.15949,0-12.97209-5.8126-12.97209-12.97209v-40.02791h0Z" fill="#3f3d56"/><path d="m356.04202,262.00015h-13.32791c-1.466,0-2.84175-.70799-3.69384-1.90092l-8.6422-12.09908h38l-8.6422,12.09908c-.85209,1.19293-2.22785,1.90092-3.69384,1.90092Z" fill="#3f3d56"/><path d="m366.12615,35.32647c-9.78508,2.02614-19.57015,4.05229-29.35523,6.07843-4.40004.91109-9.32793,1.38395-13.32571,3.57071-3.87589,2.12009-6.59038,6.56839-5.20384,11.0215,1.32408,4.25251,5.23235,6.92014,9.42433,7.86845,4.65106,1.05217,9.63356,1.04475,14.37444,1.41071,4.9449.38171,9.8898.76341,14.8347,1.14512,2.35337.18166,4.71905.30711,7.06693.54884.751.07732,1.56979.16944,2.18644.64589-.0093-.00719.20836.12917.08769.15012-.02354.00409-.02548-.1543-.02207-.16491.09529-.29674.05612-.01596-.02075-.01525-.02699.00025-.73526.46812-1.13042.54199-1.06603.1993-2.24216.05431-3.32237.03591-2.34708-.03998-4.69541.00436-7.03935.13214-4.71747.25718-9.42845.84396-14.06835,1.73284-4.56402.87434-9.10646,2.03846-13.48968,3.58913-4.24986,1.5035-8.70105,4.35866-8.81664,9.39621-.10856,4.73132,3.996,8.0562,8.17609,9.24474,2.14995.6113,4.41565.83289,6.62081,1.16093,2.46033.366,4.92067.732,7.381,1.098,4.83866.7198,9.67731,1.4396,14.51597,2.15939,2.46033.366,4.92067.732,7.381,1.098,1.14726.17067,2.30106.3178,3.44447.5124.42158.07175.8192.20433,1.23503.28965-.27921-.05729.06722-.05682.01.00821.18217.11163.18258.09478.00123-.05057l-.12357-.18156c-.28234-.79255-.27258-.89695.2426-1.8342.09836-.17895.29818.00572.04346-.02243-.27188-.03004.16303-.03404-.12656.08556-.14478.05979-.30217.10049-.45291.14219-1.13922.31519-2.33285.47986-3.4924.70755-2.41053.47332-4.82107.94664-7.2316,1.41996-4.74071.93086-9.48148,1.86146-14.22214,2.79259-8.35115,1.64029-17.22027,3.8587-22.225,11.39391-1.08873,1.63921-1.87883,3.52803-2.27347,5.45482-.3248,1.58578.45984,3.24097,2.09532,3.69036,1.48351.40763,3.36372-.50056,3.69036-2.09532,1.58533-7.74015,10.055-10.51989,17.02006-11.99627,4.61722-.97871,9.26281-1.83505,13.89412-2.74444,4.66759-.91651,9.40939-1.66266,14.0371-2.76137,1.9455-.4619,4.05633-1.65799,4.60012-3.7324.59537-2.27118-.52565-4.46368-2.5843-5.52174-1.97445-1.01478-4.3215-1.09484-6.47893-1.41577-2.37832-.3538-4.75665-.7076-7.13497-1.0614-4.83866-.7198-9.67731-1.4396-14.51597-2.15939-2.37832-.3538-4.75665-.7076-7.13497-1.0614-2.20524-.32805-4.47061-.54956-6.62081-1.16093-1.45474-.41363-2.94324-1.12339-3.58581-2.50851-.20717-.44658-.26047-.7716-.119-1.27388.19418-.68946.73416-1.33156,1.3351-1.80673,1.38526-1.09533,3.26028-1.58401,4.90692-2.1123,2.16064-.6932,4.34524-1.31168,6.54859-1.85409,4.37442-1.07688,8.82057-1.86498,13.30492-2.30181,2.33636-.22759,4.68064-.37227,7.02727-.43316,2.22033-.05761,4.44462.07999,6.66212.0113,2.36368-.07321,4.7965-.70515,6.41923-2.53748,1.66997-1.88567,2.07596-4.4605.91412-6.72101-2.29915-4.47333-8.39123-4.03382-12.63808-4.36164-4.86248-.37534-9.72497-.75069-14.58745-1.12603-4.54681-.35098-9.22151-.4249-13.72887-1.12463-1.66926-.25914-3.59306-.73621-4.85191-1.73087-1.15405-.91186-1.9032-2.10742-1.81149-3.30544.08531-1.1144,1.22331-2.34531,2.41464-3.02936,1.67141-.95972,3.64349-1.31787,5.51016-1.70703,9.60699-2.00283,19.21945-3.97979,28.82914-5.96962,2.36473-.48965,4.72945-.9793,7.09418-1.46895,1.58727-.32867,2.50472-2.20063,2.09532-3.69036-.45286-1.64789-2.09848-2.42494-3.69036-2.09532h0Z" fill="#6c63ff"/></g><rect x="220.374" y="131.00008" width="19.65164" height="38.14729" fill="#ffafaf"/><path d="m272.4694,237.29842l-47.39512-3.46794s-19.65164,45.08316-4.62391,73.98263l10.40381,60.11088-4.11409,98.93814h21.52698l33.45017-159.04903-9.24783-70.51469Z" fill="#2f2e41"/><polygon points="263.22157 287.79173 281.71723 303.89042 272.4694 461.55826 251.66179 461.55826 263.22157 287.79173" fill="#2f2e41"/><circle cx="229.93432" cy="113.93163" r="24.56883" fill="#ffafaf"/><path d="m226.9916,443.38148l25.37943,4.0095,4.76997,18.20598s20.60701,7.75462,10.67776,16.18143c-9.92926,8.42681-46.61071,4.07002-49.5109-1.97463s8.68374-36.42227,8.68374-36.42227Z" fill="#2f2e41"/><path d="m247.79921,443.38148l25.37943,4.0095,4.76997,18.20598s20.60701,7.75462,10.67776,16.18143c-9.92926,8.42681-46.61071,4.07002-49.5109-1.97463-2.90019-6.04465,8.68374-36.42227,8.68374-36.42227Z" fill="#2f2e41"/><path d="m317.91302,233.38836c-2.72814.03013-5.42343-.59303-7.86116-1.81815l-10.86519-.16383-32.03545.62181-15.33933-5.01036,4.17817-12.06083,42.0881,3.68989,12.00513.78955c2.44471-1.2134,5.14429-1.82351,7.87283-1.77842,6.82654.01602,12.35101,3.55244,12.33967,7.89606-.01143,4.34454-5.554,7.85149-12.38277,7.83429Z" fill="#ffafaf"/><path d="m241.83597,145.39813h-24.32173l-8.04567,24.27555,15.60571,64.15681,47.39512,3.46794-2.88995-26.00952v-.00002c5.5955-9.09267,5.14898-20.66363-1.1306-29.29804l-26.61289-36.59272Z" fill="#dedede"/><path d="m218.7164,155.80194l25.43153-4.3658,18.49566,58.69679,39.30327,6.93587v16.76169c0,.57799-53.79192,5.2019-55.21743,3.46794-1.42552-1.73397-28.01302-81.49649-28.01302-81.49649Z" fill="#dedede"/><path d="m242.20224,99.6872c3.0182,4.89641.23544,11.34568-3.48262,15.73434s-8.5123,8.24091-10.17231,13.74806c-1.48833,4.93758-.13451,10.26267,1.61586,15.11355,1.75037,4.85088,3.9266,9.68736,4.10704,14.84122.18044,5.15386-2.25871,10.84543-7.11336,12.58531-4.9817,1.78542-10.8712-1.02037-15.66949,1.21154-6.24995,2.90715-7.66621,12.972-14.47977,14.01544-4.19317.64215-8.0793-2.99326-9.2512-7.07022-1.17191-4.07697-.33022-8.42859.51692-12.5852,2.32107-11.38866,4.64215-22.77731,6.96322-34.16597,1.93126-9.476,3.86253-18.952,5.79379-28.428,1.15307-5.65769,2.5212-11.70956,6.77327-15.61583,5.19577-4.77321,13.02743-4.88668,20.07709-4.60062,6.477.26282,13.21543.70598,18.85408,3.90382,5.63865,3.19784,9.7803,9.99526,7.82913,16.17697-1.82241-4.35077-7.26723-6.7915-11.72774-5.25714" fill="#2f2e41"/></svg>